<svg viewBox="0 0 200 200" role="img" aria-label="AiExponent — Building AI that deserves to be trusted" xmlns="http://www.w3.org/2000/svg">
  <title>AiExponent icon</title><desc>AiExponent AI governance platform</desc>
  <rect width="200" height="200" rx="36" fill="#0A1628"/><path d="M85,18 L14,172 L47,172 L70,110 Z" fill="#C9A84C"/><path d="M85,18 L156,172 L123,172 L100,110 Z" fill="#C9A84C"/><path d="M70,110 L100,110 L106,130 L64,130 Z" fill="#C9A84C"/><path d="M47,172 C47,192 85,196 85,196 C85,196 123,192 123,172 Z" fill="#C9A84C"/><rect x="163" y="18" width="11" height="11" rx="2" fill="#C9A84C" opacity="1.0"/><rect x="178" y="18" width="11" height="11" rx="2" fill="#C9A84C" opacity="0.78"/><rect x="163" y="33" width="11" height="11" rx="2" fill="#C9A84C" opacity="0.78"/><rect x="178" y="33" width="11" height="11" rx="2" fill="#C9A84C" opacity="0.42"/></svg>